<?xml version="1.0" encoding="utf-8"?>
<!-- Generator: Adobe Illustrator 23.1.1, SVG Export Plug-In . SVG Version: 6.00 Build 0)  -->
<svg version="1.1" xmlns="http://www.w3.org/2000/svg" xmlns:xlink="http://www.w3.org/1999/xlink" x="0px" y="0px"
	 viewBox="0 0 85.04 85.04" style="enable-background:new 0 0 85.04 85.04;" xml:space="preserve">
<style type="text/css">
	.st0{opacity:0.84;}
	.st1{fill:#FFFFFF;}
	.st2{opacity:0.68;fill:#FFFFFF;}
	.st3{opacity:0.42;fill:#FFFFFF;}
</style>
<g id="图层_2">
</g>
<g id="图层_3">
	<g>
		<g class="st0">
			<g id="XMLID_1_">
				<g>
					<path class="st1" d="M85.04,22.85v56.02c0,3.42-2.76,6.18-6.17,6.18H6.17C2.76,85.05,0,82.28,0,78.87V22.85
						c0-3.42,2.76-6.18,6.17-6.18h72.7C82.28,16.67,85.04,19.43,85.04,22.85z M72.35,78.34c4.52,0,5.22-5.76,3.19-8.75L62.65,50.62
						c-3.24-4.8-6.81-0.95-8.17,0.69L41.79,66.58c-3.3,3.23-6.09,2.12-7.71-0.3c-0.01,0-4.72-7.04-4.72-7.04
						c-2.03-2.81-5.32-1.65-6.5-0.36c-0.27,0.33-9.7,10.62-9.7,10.62c-3.59,4.38,0.34,8.85,3.33,8.85L72.35,78.34z M38.44,40.51
						c0-4.77-3.54-8.64-7.9-8.64s-7.88,3.87-7.88,8.64s3.53,8.64,7.88,8.64S38.44,45.28,38.44,40.51z"/>
				</g>
				<g>
				</g>
			</g>
		</g>
		<path class="st2" d="M77.83,13.81v0.33H7.21v-0.33c0-3.39,2.71-6.12,6.03-6.12H71.8C75.12,7.69,77.83,10.42,77.83,13.81z"/>
		<path class="st3" d="M69.92,4.75V5h-54.8V4.75c0-2.63,2.1-4.75,4.68-4.75h45.45C67.82,0,69.92,2.12,69.92,4.75z"/>
	</g>
</g>
</svg>
